<svg width="88" height="71" viewBox="0 0 88 71" fill="none" xmlns="http://www.w3.org/2000/svg">
<g clip-path="url(#clip0_1034_1711)">
<path d="M48.919 51.8668C48.7223 48.5414 50.1177 45.765 52.7856 43.3942C57.1294 39.5346 58.6454 34.5927 57.1343 28.974C55.5929 23.239 51.7099 19.7743 45.8977 18.6779C38.1957 17.2254 30.7978 22.568 29.5565 30.4413C28.7416 35.6058 30.3567 39.9757 34.2315 43.4247C36.2321 45.2053 37.6349 47.2505 38.0038 49.9354C38.1916 51.2997 38.117 52.678 38.058 54.0464C38.0202 54.9186 37.1495 55.5591 36.2747 55.5269C35.3786 55.494 34.6841 54.837 34.6316 53.9112C34.5915 53.199 34.5956 52.4826 34.6169 51.7696C34.6858 49.5026 33.847 47.6816 32.0982 46.2349C29.6385 44.1996 27.9208 41.6227 26.8443 38.6171C23.1786 28.3821 29.741 17.0655 40.4053 15.2222C49.93 13.5752 58.8774 19.5558 60.7878 29.1273C62.1389 35.8976 60.0695 41.7035 54.8624 46.2596C53.2169 47.699 52.388 49.407 52.388 51.5643C52.388 52.3062 52.4044 53.0481 52.3855 53.7892C52.3593 54.8205 51.6771 55.5072 50.6933 55.5269C49.7127 55.5467 48.9592 54.8056 48.924 53.7637C48.9059 53.2146 48.9207 52.6648 48.9207 51.8668H48.919Z" fill="#5910C9"/>
<path d="M50.8925 29.2411C50.9482 29.7686 50.6498 30.1874 50.2743 30.5658C48.0549 32.7998 45.8412 35.0403 43.6094 37.2619C42.6091 38.2577 41.7105 38.2305 40.7013 37.2224C39.519 36.0419 38.3392 34.859 37.1651 33.6703C36.2976 32.7923 36.2132 31.7223 36.938 30.9689C37.6628 30.2154 38.7229 30.2937 39.61 31.1741C40.3102 31.8682 41.0243 32.55 41.6901 33.2762C42.0582 33.6777 42.2853 33.6497 42.6567 33.268C44.3555 31.5212 46.0912 29.8115 47.799 28.0738C48.3 27.5635 48.8731 27.3269 49.5708 27.4588C50.394 27.6146 50.8966 28.2922 50.8925 29.2402V29.2411Z" fill="#5910C9"/>
<path d="M43.5022 63.2617C41.4803 63.2617 39.4585 63.2658 37.4358 63.26C36.1322 63.2567 35.4451 62.6418 35.4549 61.5066C35.4648 60.393 36.1945 59.7566 37.471 59.7566C41.5147 59.7566 45.5593 59.7549 49.6029 59.7607C50.6926 59.7623 51.4338 60.3443 51.5371 61.2536C51.6732 62.4472 50.9795 63.2468 49.7317 63.2592C47.6549 63.2806 45.5781 63.265 43.5013 63.265V63.2609L43.5022 63.2617Z" fill="#5910C9"/>
<path d="M45.2812 4.90838C45.2812 5.86709 45.2911 6.82581 45.2788 7.78452C45.2632 8.99713 44.6114 9.76047 43.5882 9.79262C42.5051 9.82642 41.7541 9.08863 41.7319 7.85789C41.6975 5.88605 41.6991 3.9134 41.7286 1.94156C41.7467 0.770168 42.51 -0.0154325 43.5135 0.00023001C44.5581 0.0167169 45.2542 0.768519 45.2788 1.94981C45.2993 2.93572 45.2829 3.92164 45.2829 4.90756H45.2796L45.2812 4.90838Z" fill="#5910C9"/>
<path d="M23.9994 45.0585C24.0576 45.6529 23.7641 46.1467 23.2468 46.4566C21.4217 47.548 19.5876 48.6263 17.7338 49.6674C16.8172 50.1826 15.8022 49.8702 15.3283 49.0187C14.8486 48.1572 15.1143 47.1524 16.0235 46.6116C17.7814 45.5671 19.5458 44.5326 21.3299 43.5351C22.6384 42.8039 23.9888 43.5706 23.9994 45.0577V45.0585Z" fill="#5910C9"/>
<path d="M63.0071 20.4093C62.9923 19.6542 63.2982 19.1745 63.8631 18.8455C65.6316 17.8184 67.3911 16.7764 69.1718 15.7699C70.1434 15.2209 71.1707 15.4765 71.6602 16.3264C72.1677 17.2076 71.8939 18.2248 70.9363 18.7928C69.1768 19.8364 67.4091 20.8668 65.6234 21.8627C64.3361 22.5798 62.9833 21.7613 63.0071 20.4093Z" fill="#5910C9"/>
<path d="M28.1612 4.16973C28.8253 4.12521 29.3164 4.48463 29.6534 5.06496C30.6832 6.83895 31.7146 8.61212 32.7107 10.4051C33.2658 11.4034 32.9969 12.4008 32.1139 12.8896C31.2145 13.3876 30.2445 13.0966 29.6772 12.1205C28.6466 10.3474 27.6069 8.57915 26.628 6.77713C25.9344 5.50022 26.7239 4.1722 28.1612 4.17055V4.16973Z" fill="#5910C9"/>
<path d="M55.7576 13.0939C54.4942 13.1046 53.5825 11.8401 54.1695 10.7132C55.2034 8.72815 56.3307 6.78929 57.4884 4.87351C57.973 4.07142 59.0274 3.93129 59.8128 4.40611C60.5474 4.85043 60.8926 5.82563 60.454 6.62937C59.3947 8.57235 58.278 10.484 57.1515 12.3891C56.8588 12.8845 56.3504 13.1161 55.7568 13.0947L55.7576 13.0939Z" fill="#5910C9"/>
<path d="M24.0019 20.358C24.0167 21.6762 22.7311 22.5838 21.5734 21.9614C19.6278 20.9161 17.7257 19.786 15.8407 18.6327C15.052 18.1505 14.8798 17.0582 15.3431 16.2924C15.8219 15.5018 16.8927 15.2364 17.788 15.7384C19.2162 16.5397 20.6248 17.3756 22.0416 18.1974C22.3958 18.4027 22.745 18.6179 23.1017 18.8182C23.7035 19.1553 24.0109 19.6615 24.0019 20.358Z" fill="#5910C9"/>
<path d="M64.7396 43.2591C65.111 43.2361 65.4292 43.3902 65.7374 43.5691C67.4313 44.5567 69.1318 45.5335 70.8158 46.5384C71.8833 47.1748 72.1867 48.1013 71.6784 49.0139C71.1627 49.9396 70.1378 50.1581 69.0588 49.5406C67.31 48.5399 65.5612 47.5383 63.8345 46.4988C63.0392 46.0199 62.7875 45.1922 63.0753 44.3605C63.2934 43.7307 64.028 43.2443 64.7396 43.26V43.2591Z" fill="#5910C9"/>
<path d="M15.8111 34.436C14.8543 34.436 13.8983 34.4426 12.9423 34.4344C11.7518 34.4236 11 33.7403 11 32.6826C11 31.6349 11.7707 30.9128 12.9325 30.9078C14.8723 30.8996 16.813 30.9004 18.7529 30.9119C19.9729 30.9194 20.728 31.6258 20.7247 32.7255C20.7214 33.7823 19.9794 34.4311 18.7619 34.436C17.778 34.4393 16.795 34.436 15.8111 34.436Z" fill="#5910C9"/>
<path d="M71.1142 34.4273C70.1303 34.4273 69.1464 34.438 68.1634 34.4248C66.9975 34.4092 66.2891 33.7579 66.2801 32.7193C66.2711 31.6493 67.0164 30.9189 68.1691 30.9123C70.1369 30.9008 72.1038 30.8999 74.0715 30.9164C75.2579 30.9263 75.9925 31.6221 76.0007 32.6896C76.0089 33.7711 75.2973 34.4174 74.0658 34.4298C73.0819 34.4397 72.098 34.4314 71.115 34.4314V34.4281L71.1142 34.4273Z" fill="#5910C9"/>
<path d="M43.4643 70.9908C42.5099 70.9908 41.5548 71.0048 40.6004 70.9867C39.5616 70.9677 38.7786 70.2241 38.7696 69.2811C38.7606 68.3133 39.5805 67.5178 40.6463 67.5096C42.528 67.4947 44.4104 67.4955 46.2921 67.5079C47.4334 67.5153 48.25 68.2803 48.236 69.291C48.2221 70.3115 47.4276 70.9949 46.2454 70.9982C45.3181 71.0007 44.3908 70.9982 43.4635 70.9982C43.4635 70.9957 43.4635 70.9924 43.4635 70.9899L43.4643 70.9908Z" fill="#5910C9"/>
</g>
<defs>
<clipPath id="clip0_1034_1711">
<rect width="65" height="71" fill="white" transform="translate(11)"/>
</clipPath>
</defs>
</svg>
