<svg width="88" height="71" viewBox="0 0 88 71" fill="none" xmlns="http://www.w3.org/2000/svg">
<mask id="path-1-outside-1_1034_1697" maskUnits="userSpaceOnUse" x="10.1309" y="9.34521" width="68" height="63" fill="black">
<rect fill="white" x="10.1309" y="9.34521" width="68" height="63"/>
<path d="M35.0005 70.9127C34.9766 70.6658 34.7742 70.6953 34.6233 70.6971C33.6572 70.71 32.8273 70.2733 32.0029 69.8716C30.6374 69.2045 29.4965 68.2425 28.6206 66.9913C28.3004 66.5324 27.925 66.1012 27.7483 65.552C27.6894 65.3678 27.614 65.2314 27.3711 65.2332C26.14 65.2498 24.9163 65.1374 23.7606 64.7007C22.8976 64.3763 22.075 63.9359 21.3481 63.3554C20.8439 62.9519 20.3599 62.5206 19.9385 62.0176C19.0332 60.934 18.3155 59.7657 17.9769 58.3725C17.7726 57.5322 17.5426 56.7048 17.5463 55.8295C17.5481 55.3301 17.5518 54.8288 17.6935 54.3534C17.7818 54.0567 17.7027 53.9332 17.4543 53.795C15.627 52.787 14.1566 51.4141 13.0268 49.6358C12.4195 48.6794 11.9245 47.6751 11.6356 46.6136C11.1185 44.7156 10.9326 42.7843 11.3945 40.8088C11.6705 39.6221 12.0699 38.498 12.6311 37.4384C13.1445 36.469 13.8236 35.6085 14.5946 34.805C15.3436 34.0255 16.225 33.445 17.0881 32.8277C17.3255 32.6581 17.3052 32.5291 17.2408 32.2859C16.7973 30.6219 16.6685 28.956 16.9501 27.2293C17.1451 26.0351 17.504 24.9184 18.0707 23.8901C18.9191 22.3459 20.0618 21.0467 21.5469 20.0424C22.4338 19.4435 23.3834 19.0233 24.3642 18.6455C25.0635 18.3765 25.8161 18.312 26.5485 18.1811C26.8264 18.1314 26.9957 18.0337 27.0417 17.7684C27.2496 16.5503 27.7612 15.4427 28.4366 14.4384C28.9426 13.6866 29.5848 13.0213 30.3136 12.4445C30.8307 12.0354 31.3698 11.6908 31.9569 11.396C34.3473 10.1926 36.7855 10.0157 39.3268 10.9021C41.4007 11.6263 43.0348 12.8628 44.1721 14.7462C44.3359 15.0171 44.461 15.0023 44.5935 14.7609C45.037 13.963 45.6645 13.3254 46.3288 12.7154C47.2047 11.9101 48.2334 11.3978 49.3209 10.9261C50.6588 10.3437 52.0279 10.3806 53.4191 10.399C54.5821 10.4138 55.6255 10.8394 56.6633 11.2909C57.6626 11.7258 58.5385 12.3671 59.2819 13.1485C60.0787 13.9851 60.7559 14.9212 61.1847 16.0251C61.4092 16.6055 61.6282 17.1787 61.7239 17.796C61.757 18.0171 61.8748 18.1259 62.1213 18.1646C63.2751 18.3396 64.4253 18.5497 65.4944 19.0491C65.9729 19.2739 66.444 19.5245 66.893 19.8046C68.0045 20.4957 68.989 21.3655 69.7582 22.4085C71.0757 24.1923 71.9204 26.1936 71.983 28.4547C72.0198 29.776 72.0768 31.1083 71.5045 32.3559C71.3996 32.5826 71.4861 32.6839 71.672 32.7927C73.0282 33.5906 74.1728 34.6447 75.1389 35.872C75.6468 36.517 76.1179 37.2062 76.4178 37.993C76.611 38.5016 76.8484 38.9881 77.0306 39.5078C77.6195 41.1995 77.6471 42.9096 77.5348 44.6695C77.441 46.1327 76.9257 47.4576 76.3203 48.7255C75.6836 50.0578 74.7359 51.2169 73.6078 52.2028C72.8828 52.8368 72.1173 53.4025 71.2524 53.83C71.0739 53.9185 70.9985 54.0217 71.0445 54.2649C71.3775 56.0045 71.1328 57.6741 70.4887 59.3234C69.7637 61.1736 68.5768 62.6036 66.9371 63.7019C65.2662 64.8205 63.4316 65.2867 61.446 65.2222C61.2988 65.2167 61.2252 65.2167 61.1552 65.3714C60.513 66.7646 59.58 67.9514 58.3839 68.8875C57.1896 69.8218 55.861 70.5313 54.3079 70.6934C54.111 70.7137 53.9049 70.7321 53.7724 70.9146H51.4537C51.2992 70.7192 51.0765 70.7008 50.8538 70.6916C49.5915 70.6363 48.5205 70.0374 47.4955 69.4053C46.3067 68.6701 45.3093 67.7026 44.6119 66.4605C44.472 66.2099 44.2714 66.1344 44.1702 66.5011C44.0782 66.8309 43.8261 67.0742 43.6329 67.3064C42.4 68.7843 40.8855 69.8605 39.0453 70.5018C38.508 70.6879 37.8952 70.5055 37.4314 70.9164H35.0024L35.0005 70.9127ZM43.1673 21.1167C43.1673 20.4441 43.1949 19.9097 43.1618 19.3808C43.0827 18.1019 42.665 16.9078 41.9583 15.8647C41.4523 15.1184 40.7714 14.5048 39.9967 13.9759C38.7877 13.1503 37.4498 12.8591 36.055 12.872C34.6711 12.8849 33.3646 13.2922 32.2237 14.1454C31.23 14.8881 30.5068 15.8205 29.9639 16.9465C29.5646 17.772 29.5057 18.6326 29.3732 19.4987C29.2554 20.2727 28.7512 20.6818 27.9728 20.6873C27.6416 20.6892 27.3085 20.6689 26.9791 20.6929C25.2898 20.8108 23.7625 21.4447 22.4835 22.4933C21.4825 23.3133 20.6102 24.3011 20.0784 25.5634C19.6736 26.5253 19.3994 27.5002 19.3294 28.5174C19.2282 29.9787 19.5484 31.3553 20.1594 32.719C20.8789 34.324 22.2995 35.2344 24.0017 35.0998C24.4213 35.0667 24.8353 34.9801 25.2549 34.9635C25.7922 34.9432 26.3424 35.3578 26.4694 35.8978C26.5908 36.4138 26.4436 36.8468 26.0333 37.2356C25.6358 37.6116 25.1629 37.4973 24.7322 37.5489C23.5269 37.6927 22.3382 37.665 21.1917 37.1177C20.3268 36.7049 19.5668 36.1982 18.9393 35.4702C18.678 35.168 18.3928 34.7755 17.929 35.3302C17.7947 35.4905 17.5444 35.6343 17.3439 35.7835C15.7723 36.9519 14.7602 38.5016 14.1511 40.3481C13.6193 41.9606 13.5328 43.5822 13.9101 45.2352C14.2965 46.9287 15.062 48.4104 16.2379 49.7022C17.2353 50.7968 18.4535 51.5357 19.7527 52.177C20.4446 52.5198 20.682 53.0395 20.4464 53.76C20.3563 54.0383 20.2293 54.3202 20.2146 54.604C20.1299 56.3546 20.187 58.0537 21.2524 59.6017C22.5443 61.4776 24.2851 62.4727 26.5117 62.692C26.7049 62.7105 26.8154 62.6699 26.7859 62.4174C26.5099 60.055 27.0399 57.8842 28.4071 55.9363C28.9886 55.1089 29.7173 54.4179 30.608 53.9258C31.0938 53.6586 31.9274 53.9332 32.2053 54.4234C32.4648 54.8804 32.3286 55.7115 31.9385 56.0119C31.2189 56.5629 30.5289 57.1507 30.1001 57.9653C29.4358 59.2276 29.2058 60.571 29.3548 62.0028C29.4947 63.3352 29.8958 64.5883 30.7074 65.611C31.6293 66.7738 32.8052 67.6694 34.3068 68.0619C36.8775 68.7346 39.0913 68.1983 41.0382 66.35C42.4552 65.0047 43.1287 63.3536 43.1544 61.4721C43.2115 57.4345 43.1857 53.397 43.1581 49.3594C43.1489 47.8925 42.7551 46.4791 41.9841 45.2481C40.8413 43.4238 39.1465 42.4342 36.9604 42.3715C36.2519 42.3512 35.7127 41.8353 35.6851 41.1497C35.6593 40.5269 36.331 39.8506 37.0027 39.8321C37.3339 39.8229 37.6596 39.8506 37.989 39.9188C39.5182 40.2302 40.9609 40.6927 42.1865 41.7468C42.4644 41.9845 42.6355 42.4858 43.171 42.4489C43.171 42.2315 43.171 42.0306 43.171 41.8279C43.171 37.1822 43.171 32.5365 43.171 27.889C43.171 27.373 43.1747 26.8589 43.0698 26.3484C42.7698 24.8852 42.3466 23.5013 40.937 22.6812C40.2525 22.2832 39.5513 22.2076 38.8373 22.5449C38.1933 22.8489 37.6375 23.2857 37.1168 23.7814C36.4856 24.3803 35.8047 24.911 34.9895 25.2648C33.8651 25.7532 32.8181 25.5155 31.7397 25.1008C31.1711 24.8815 30.8895 24.5148 30.8104 23.962C30.7037 23.2064 31.6735 22.25 32.7113 22.755C33.3315 23.0572 34.0216 23.0627 34.6601 22.5836C35.5213 21.9386 36.1709 21.0412 37.1591 20.5436C38.243 19.9963 39.3397 19.6683 40.58 19.8913C41.5185 20.0608 42.3245 20.4699 43.1673 21.1204V21.1167ZM45.7105 47.2365C46.4521 46.5805 47.109 46.0055 47.8672 45.5393C49.1038 44.78 50.4343 44.347 51.8475 44.1351C52.5615 44.0282 53.0621 44.3544 53.351 45.0454C53.5534 45.5319 53.4025 45.9558 52.8578 46.4183C52.5468 46.6818 52.1512 46.7924 51.7794 46.7703C51.0452 46.726 50.3883 47.0264 49.7976 47.3176C48.5849 47.9128 47.5746 48.7789 46.8275 49.9694C46.1337 51.0732 45.7252 52.2268 45.716 53.5112C45.6939 56.2957 45.7086 59.0783 45.7105 61.8628C45.7105 63.2817 46.1981 64.5625 47.0538 65.6405C48.0034 66.8365 49.2161 67.7063 50.7563 68.0951C52.9461 68.6498 54.9207 68.2407 56.7185 66.9323C57.9239 66.0533 58.6967 64.8665 59.1476 63.431C59.7898 61.3855 59.6076 59.4763 58.4814 57.6372C58.0876 56.9959 57.5301 56.5684 56.967 56.1188C56.4039 55.671 56.3174 55.0149 56.713 54.405C57.0571 53.8761 57.7325 53.6568 58.2496 53.9443C59.2083 54.4805 59.9573 55.2711 60.5627 56.1575C61.1497 57.0199 61.5233 57.9966 61.7625 59.0415C62.0165 60.1527 62.1379 61.2473 61.987 62.3677C61.941 62.7012 62.0514 62.6883 62.3035 62.6644C63.5199 62.5501 64.6351 62.2129 65.6637 61.496C66.7862 60.7147 67.6401 59.7233 68.1369 58.4868C68.7589 56.9407 68.9319 55.3337 68.3081 53.7102C68.0597 53.0616 68.3467 52.459 68.9614 52.1604C69.6477 51.8251 70.347 51.5173 70.9837 51.0861C71.7603 50.5591 72.443 49.9104 73.0135 49.1862C73.9924 47.9441 74.6402 46.5381 74.9218 44.9477C75.218 43.2745 75.0966 41.6602 74.5592 40.0699C74.3439 39.4341 74.044 38.8315 73.6943 38.2437C73.0245 37.1195 72.1191 36.235 71.0978 35.4518C70.8678 35.2749 70.6065 34.9948 70.3691 35.0059C70.0839 35.0188 69.9367 35.4076 69.7508 35.6508C69.6257 35.813 69.4435 35.8959 69.2981 36.0323C68.5344 36.7584 67.6088 37.2393 66.593 37.4807C65.5294 37.7332 64.44 37.6226 63.3616 37.4992C62.5207 37.4033 61.9981 36.434 62.3845 35.6785C62.7047 35.0519 63.312 34.8161 64.1787 35.0095C65.1669 35.2307 66.133 35.1091 67.0052 34.6502C67.7284 34.2706 68.2179 33.5998 68.5988 32.8627C69.2963 31.5082 69.5171 30.0635 69.449 28.5598C69.3349 26.0149 68.2069 23.9694 66.2379 22.4325C64.6774 21.2162 62.8722 20.5528 60.8498 20.691C60.4044 20.7205 60.0842 20.5583 59.7696 20.2653C59.3776 19.9023 59.4843 19.4213 59.4144 18.9883C59.1807 17.538 58.6691 16.2204 57.6552 15.135C56.5253 13.9261 55.1746 13.1245 53.5 12.9623C51.8825 12.8039 50.3441 12.9937 48.929 13.8985C48.2776 14.315 47.6887 14.7959 47.2194 15.3875C46.5588 16.2186 46.0123 17.151 45.8338 18.2106C45.6185 19.484 45.716 20.7813 45.7123 22.0694C45.7105 22.7586 45.7123 23.4478 45.7123 24.1997C46.0362 24.0044 46.2736 23.8367 46.5312 23.7095C47.7789 23.0959 49.0449 22.7439 50.4398 23.258C51.393 23.61 52.3757 23.8754 53.351 24.1629C53.9159 24.3287 54.4698 24.2476 55.02 24.0412C55.6236 23.8146 56.1186 23.4257 56.6265 23.0498C57.1087 22.6941 58.0269 22.755 58.3453 23.1456C58.763 23.6616 58.7961 24.5959 58.3177 24.9387C57.6791 25.3957 57.0553 25.8656 56.3413 26.2323C54.9501 26.9473 53.5552 26.8589 52.1364 26.4829C51.4022 26.2876 50.6753 26.0333 49.9761 25.7329C48.7983 25.2243 47.6243 25.8158 46.9121 26.6967C46.0859 27.7194 45.727 28.9154 45.7234 30.1943C45.7013 35.8351 45.7142 41.4759 45.7142 47.2328L45.7105 47.2365Z"/>
</mask>
<path d="M35.0005 70.9127C34.9766 70.6658 34.7742 70.6953 34.6233 70.6971C33.6572 70.71 32.8273 70.2733 32.0029 69.8716C30.6374 69.2045 29.4965 68.2425 28.6206 66.9913C28.3004 66.5324 27.925 66.1012 27.7483 65.552C27.6894 65.3678 27.614 65.2314 27.3711 65.2332C26.14 65.2498 24.9163 65.1374 23.7606 64.7007C22.8976 64.3763 22.075 63.9359 21.3481 63.3554C20.8439 62.9519 20.3599 62.5206 19.9385 62.0176C19.0332 60.934 18.3155 59.7657 17.9769 58.3725C17.7726 57.5322 17.5426 56.7048 17.5463 55.8295C17.5481 55.3301 17.5518 54.8288 17.6935 54.3534C17.7818 54.0567 17.7027 53.9332 17.4543 53.795C15.627 52.787 14.1566 51.4141 13.0268 49.6358C12.4195 48.6794 11.9245 47.6751 11.6356 46.6136C11.1185 44.7156 10.9326 42.7843 11.3945 40.8088C11.6705 39.6221 12.0699 38.498 12.6311 37.4384C13.1445 36.469 13.8236 35.6085 14.5946 34.805C15.3436 34.0255 16.225 33.445 17.0881 32.8277C17.3255 32.6581 17.3052 32.5291 17.2408 32.2859C16.7973 30.6219 16.6685 28.956 16.9501 27.2293C17.1451 26.0351 17.504 24.9184 18.0707 23.8901C18.9191 22.3459 20.0618 21.0467 21.5469 20.0424C22.4338 19.4435 23.3834 19.0233 24.3642 18.6455C25.0635 18.3765 25.8161 18.312 26.5485 18.1811C26.8264 18.1314 26.9957 18.0337 27.0417 17.7684C27.2496 16.5503 27.7612 15.4427 28.4366 14.4384C28.9426 13.6866 29.5848 13.0213 30.3136 12.4445C30.8307 12.0354 31.3698 11.6908 31.9569 11.396C34.3473 10.1926 36.7855 10.0157 39.3268 10.9021C41.4007 11.6263 43.0348 12.8628 44.1721 14.7462C44.3359 15.0171 44.461 15.0023 44.5935 14.7609C45.037 13.963 45.6645 13.3254 46.3288 12.7154C47.2047 11.9101 48.2334 11.3978 49.3209 10.9261C50.6588 10.3437 52.0279 10.3806 53.4191 10.399C54.5821 10.4138 55.6255 10.8394 56.6633 11.2909C57.6626 11.7258 58.5385 12.3671 59.2819 13.1485C60.0787 13.9851 60.7559 14.9212 61.1847 16.0251C61.4092 16.6055 61.6282 17.1787 61.7239 17.796C61.757 18.0171 61.8748 18.1259 62.1213 18.1646C63.2751 18.3396 64.4253 18.5497 65.4944 19.0491C65.9729 19.2739 66.444 19.5245 66.893 19.8046C68.0045 20.4957 68.989 21.3655 69.7582 22.4085C71.0757 24.1923 71.9204 26.1936 71.983 28.4547C72.0198 29.776 72.0768 31.1083 71.5045 32.3559C71.3996 32.5826 71.4861 32.6839 71.672 32.7927C73.0282 33.5906 74.1728 34.6447 75.1389 35.872C75.6468 36.517 76.1179 37.2062 76.4178 37.993C76.611 38.5016 76.8484 38.9881 77.0306 39.5078C77.6195 41.1995 77.6471 42.9096 77.5348 44.6695C77.441 46.1327 76.9257 47.4576 76.3203 48.7255C75.6836 50.0578 74.7359 51.2169 73.6078 52.2028C72.8828 52.8368 72.1173 53.4025 71.2524 53.83C71.0739 53.9185 70.9985 54.0217 71.0445 54.2649C71.3775 56.0045 71.1328 57.6741 70.4887 59.3234C69.7637 61.1736 68.5768 62.6036 66.9371 63.7019C65.2662 64.8205 63.4316 65.2867 61.446 65.2222C61.2988 65.2167 61.2252 65.2167 61.1552 65.3714C60.513 66.7646 59.58 67.9514 58.3839 68.8875C57.1896 69.8218 55.861 70.5313 54.3079 70.6934C54.111 70.7137 53.9049 70.7321 53.7724 70.9146H51.4537C51.2992 70.7192 51.0765 70.7008 50.8538 70.6916C49.5915 70.6363 48.5205 70.0374 47.4955 69.4053C46.3067 68.6701 45.3093 67.7026 44.6119 66.4605C44.472 66.2099 44.2714 66.1344 44.1702 66.5011C44.0782 66.8309 43.8261 67.0742 43.6329 67.3064C42.4 68.7843 40.8855 69.8605 39.0453 70.5018C38.508 70.6879 37.8952 70.5055 37.4314 70.9164H35.0024L35.0005 70.9127ZM43.1673 21.1167C43.1673 20.4441 43.1949 19.9097 43.1618 19.3808C43.0827 18.1019 42.665 16.9078 41.9583 15.8647C41.4523 15.1184 40.7714 14.5048 39.9967 13.9759C38.7877 13.1503 37.4498 12.8591 36.055 12.872C34.6711 12.8849 33.3646 13.2922 32.2237 14.1454C31.23 14.8881 30.5068 15.8205 29.9639 16.9465C29.5646 17.772 29.5057 18.6326 29.3732 19.4987C29.2554 20.2727 28.7512 20.6818 27.9728 20.6873C27.6416 20.6892 27.3085 20.6689 26.9791 20.6929C25.2898 20.8108 23.7625 21.4447 22.4835 22.4933C21.4825 23.3133 20.6102 24.3011 20.0784 25.5634C19.6736 26.5253 19.3994 27.5002 19.3294 28.5174C19.2282 29.9787 19.5484 31.3553 20.1594 32.719C20.8789 34.324 22.2995 35.2344 24.0017 35.0998C24.4213 35.0667 24.8353 34.9801 25.2549 34.9635C25.7922 34.9432 26.3424 35.3578 26.4694 35.8978C26.5908 36.4138 26.4436 36.8468 26.0333 37.2356C25.6358 37.6116 25.1629 37.4973 24.7322 37.5489C23.5269 37.6927 22.3382 37.665 21.1917 37.1177C20.3268 36.7049 19.5668 36.1982 18.9393 35.4702C18.678 35.168 18.3928 34.7755 17.929 35.3302C17.7947 35.4905 17.5444 35.6343 17.3439 35.7835C15.7723 36.9519 14.7602 38.5016 14.1511 40.3481C13.6193 41.9606 13.5328 43.5822 13.9101 45.2352C14.2965 46.9287 15.062 48.4104 16.2379 49.7022C17.2353 50.7968 18.4535 51.5357 19.7527 52.177C20.4446 52.5198 20.682 53.0395 20.4464 53.76C20.3563 54.0383 20.2293 54.3202 20.2146 54.604C20.1299 56.3546 20.187 58.0537 21.2524 59.6017C22.5443 61.4776 24.2851 62.4727 26.5117 62.692C26.7049 62.7105 26.8154 62.6699 26.7859 62.4174C26.5099 60.055 27.0399 57.8842 28.4071 55.9363C28.9886 55.1089 29.7173 54.4179 30.608 53.9258C31.0938 53.6586 31.9274 53.9332 32.2053 54.4234C32.4648 54.8804 32.3286 55.7115 31.9385 56.0119C31.2189 56.5629 30.5289 57.1507 30.1001 57.9653C29.4358 59.2276 29.2058 60.571 29.3548 62.0028C29.4947 63.3352 29.8958 64.5883 30.7074 65.611C31.6293 66.7738 32.8052 67.6694 34.3068 68.0619C36.8775 68.7346 39.0913 68.1983 41.0382 66.35C42.4552 65.0047 43.1287 63.3536 43.1544 61.4721C43.2115 57.4345 43.1857 53.397 43.1581 49.3594C43.1489 47.8925 42.7551 46.4791 41.9841 45.2481C40.8413 43.4238 39.1465 42.4342 36.9604 42.3715C36.2519 42.3512 35.7127 41.8353 35.6851 41.1497C35.6593 40.5269 36.331 39.8506 37.0027 39.8321C37.3339 39.8229 37.6596 39.8506 37.989 39.9188C39.5182 40.2302 40.9609 40.6927 42.1865 41.7468C42.4644 41.9845 42.6355 42.4858 43.171 42.4489C43.171 42.2315 43.171 42.0306 43.171 41.8279C43.171 37.1822 43.171 32.5365 43.171 27.889C43.171 27.373 43.1747 26.8589 43.0698 26.3484C42.7698 24.8852 42.3466 23.5013 40.937 22.6812C40.2525 22.2832 39.5513 22.2076 38.8373 22.5449C38.1933 22.8489 37.6375 23.2857 37.1168 23.7814C36.4856 24.3803 35.8047 24.911 34.9895 25.2648C33.8651 25.7532 32.8181 25.5155 31.7397 25.1008C31.1711 24.8815 30.8895 24.5148 30.8104 23.962C30.7037 23.2064 31.6735 22.25 32.7113 22.755C33.3315 23.0572 34.0216 23.0627 34.6601 22.5836C35.5213 21.9386 36.1709 21.0412 37.1591 20.5436C38.243 19.9963 39.3397 19.6683 40.58 19.8913C41.5185 20.0608 42.3245 20.4699 43.1673 21.1204V21.1167ZM45.7105 47.2365C46.4521 46.5805 47.109 46.0055 47.8672 45.5393C49.1038 44.78 50.4343 44.347 51.8475 44.1351C52.5615 44.0282 53.0621 44.3544 53.351 45.0454C53.5534 45.5319 53.4025 45.9558 52.8578 46.4183C52.5468 46.6818 52.1512 46.7924 51.7794 46.7703C51.0452 46.726 50.3883 47.0264 49.7976 47.3176C48.5849 47.9128 47.5746 48.7789 46.8275 49.9694C46.1337 51.0732 45.7252 52.2268 45.716 53.5112C45.6939 56.2957 45.7086 59.0783 45.7105 61.8628C45.7105 63.2817 46.1981 64.5625 47.0538 65.6405C48.0034 66.8365 49.2161 67.7063 50.7563 68.0951C52.9461 68.6498 54.9207 68.2407 56.7185 66.9323C57.9239 66.0533 58.6967 64.8665 59.1476 63.431C59.7898 61.3855 59.6076 59.4763 58.4814 57.6372C58.0876 56.9959 57.5301 56.5684 56.967 56.1188C56.4039 55.671 56.3174 55.0149 56.713 54.405C57.0571 53.8761 57.7325 53.6568 58.2496 53.9443C59.2083 54.4805 59.9573 55.2711 60.5627 56.1575C61.1497 57.0199 61.5233 57.9966 61.7625 59.0415C62.0165 60.1527 62.1379 61.2473 61.987 62.3677C61.941 62.7012 62.0514 62.6883 62.3035 62.6644C63.5199 62.5501 64.6351 62.2129 65.6637 61.496C66.7862 60.7147 67.6401 59.7233 68.1369 58.4868C68.7589 56.9407 68.9319 55.3337 68.3081 53.7102C68.0597 53.0616 68.3467 52.459 68.9614 52.1604C69.6477 51.8251 70.347 51.5173 70.9837 51.0861C71.7603 50.5591 72.443 49.9104 73.0135 49.1862C73.9924 47.9441 74.6402 46.5381 74.9218 44.9477C75.218 43.2745 75.0966 41.6602 74.5592 40.0699C74.3439 39.4341 74.044 38.8315 73.6943 38.2437C73.0245 37.1195 72.1191 36.235 71.0978 35.4518C70.8678 35.2749 70.6065 34.9948 70.3691 35.0059C70.0839 35.0188 69.9367 35.4076 69.7508 35.6508C69.6257 35.813 69.4435 35.8959 69.2981 36.0323C68.5344 36.7584 67.6088 37.2393 66.593 37.4807C65.5294 37.7332 64.44 37.6226 63.3616 37.4992C62.5207 37.4033 61.9981 36.434 62.3845 35.6785C62.7047 35.0519 63.312 34.8161 64.1787 35.0095C65.1669 35.2307 66.133 35.1091 67.0052 34.6502C67.7284 34.2706 68.2179 33.5998 68.5988 32.8627C69.2963 31.5082 69.5171 30.0635 69.449 28.5598C69.3349 26.0149 68.2069 23.9694 66.2379 22.4325C64.6774 21.2162 62.8722 20.5528 60.8498 20.691C60.4044 20.7205 60.0842 20.5583 59.7696 20.2653C59.3776 19.9023 59.4843 19.4213 59.4144 18.9883C59.1807 17.538 58.6691 16.2204 57.6552 15.135C56.5253 13.9261 55.1746 13.1245 53.5 12.9623C51.8825 12.8039 50.3441 12.9937 48.929 13.8985C48.2776 14.315 47.6887 14.7959 47.2194 15.3875C46.5588 16.2186 46.0123 17.151 45.8338 18.2106C45.6185 19.484 45.716 20.7813 45.7123 22.0694C45.7105 22.7586 45.7123 23.4478 45.7123 24.1997C46.0362 24.0044 46.2736 23.8367 46.5312 23.7095C47.7789 23.0959 49.0449 22.7439 50.4398 23.258C51.393 23.61 52.3757 23.8754 53.351 24.1629C53.9159 24.3287 54.4698 24.2476 55.02 24.0412C55.6236 23.8146 56.1186 23.4257 56.6265 23.0498C57.1087 22.6941 58.0269 22.755 58.3453 23.1456C58.763 23.6616 58.7961 24.5959 58.3177 24.9387C57.6791 25.3957 57.0553 25.8656 56.3413 26.2323C54.9501 26.9473 53.5552 26.8589 52.1364 26.4829C51.4022 26.2876 50.6753 26.0333 49.9761 25.7329C48.7983 25.2243 47.6243 25.8158 46.9121 26.6967C46.0859 27.7194 45.727 28.9154 45.7234 30.1943C45.7013 35.8351 45.7142 41.4759 45.7142 47.2328L45.7105 47.2365Z" fill="#D860E2"/>
<path d="M35.0005 70.9127C34.9766 70.6658 34.7742 70.6953 34.6233 70.6971C33.6572 70.71 32.8273 70.2733 32.0029 69.8716C30.6374 69.2045 29.4965 68.2425 28.6206 66.9913C28.3004 66.5324 27.925 66.1012 27.7483 65.552C27.6894 65.3678 27.614 65.2314 27.3711 65.2332C26.14 65.2498 24.9163 65.1374 23.7606 64.7007C22.8976 64.3763 22.075 63.9359 21.3481 63.3554C20.8439 62.9519 20.3599 62.5206 19.9385 62.0176C19.0332 60.934 18.3155 59.7657 17.9769 58.3725C17.7726 57.5322 17.5426 56.7048 17.5463 55.8295C17.5481 55.3301 17.5518 54.8288 17.6935 54.3534C17.7818 54.0567 17.7027 53.9332 17.4543 53.795C15.627 52.787 14.1566 51.4141 13.0268 49.6358C12.4195 48.6794 11.9245 47.6751 11.6356 46.6136C11.1185 44.7156 10.9326 42.7843 11.3945 40.8088C11.6705 39.6221 12.0699 38.498 12.6311 37.4384C13.1445 36.469 13.8236 35.6085 14.5946 34.805C15.3436 34.0255 16.225 33.445 17.0881 32.8277C17.3255 32.6581 17.3052 32.5291 17.2408 32.2859C16.7973 30.6219 16.6685 28.956 16.9501 27.2293C17.1451 26.0351 17.504 24.9184 18.0707 23.8901C18.9191 22.3459 20.0618 21.0467 21.5469 20.0424C22.4338 19.4435 23.3834 19.0233 24.3642 18.6455C25.0635 18.3765 25.8161 18.312 26.5485 18.1811C26.8264 18.1314 26.9957 18.0337 27.0417 17.7684C27.2496 16.5503 27.7612 15.4427 28.4366 14.4384C28.9426 13.6866 29.5848 13.0213 30.3136 12.4445C30.8307 12.0354 31.3698 11.6908 31.9569 11.396C34.3473 10.1926 36.7855 10.0157 39.3268 10.9021C41.4007 11.6263 43.0348 12.8628 44.1721 14.7462C44.3359 15.0171 44.461 15.0023 44.5935 14.7609C45.037 13.963 45.6645 13.3254 46.3288 12.7154C47.2047 11.9101 48.2334 11.3978 49.3209 10.9261C50.6588 10.3437 52.0279 10.3806 53.4191 10.399C54.5821 10.4138 55.6255 10.8394 56.6633 11.2909C57.6626 11.7258 58.5385 12.3671 59.2819 13.1485C60.0787 13.9851 60.7559 14.9212 61.1847 16.0251C61.4092 16.6055 61.6282 17.1787 61.7239 17.796C61.757 18.0171 61.8748 18.1259 62.1213 18.1646C63.2751 18.3396 64.4253 18.5497 65.4944 19.0491C65.9729 19.2739 66.444 19.5245 66.893 19.8046C68.0045 20.4957 68.989 21.3655 69.7582 22.4085C71.0757 24.1923 71.9204 26.1936 71.983 28.4547C72.0198 29.776 72.0768 31.1083 71.5045 32.3559C71.3996 32.5826 71.4861 32.6839 71.672 32.7927C73.0282 33.5906 74.1728 34.6447 75.1389 35.872C75.6468 36.517 76.1179 37.2062 76.4178 37.993C76.611 38.5016 76.8484 38.9881 77.0306 39.5078C77.6195 41.1995 77.6471 42.9096 77.5348 44.6695C77.441 46.1327 76.9257 47.4576 76.3203 48.7255C75.6836 50.0578 74.7359 51.2169 73.6078 52.2028C72.8828 52.8368 72.1173 53.4025 71.2524 53.83C71.0739 53.9185 70.9985 54.0217 71.0445 54.2649C71.3775 56.0045 71.1328 57.6741 70.4887 59.3234C69.7637 61.1736 68.5768 62.6036 66.9371 63.7019C65.2662 64.8205 63.4316 65.2867 61.446 65.2222C61.2988 65.2167 61.2252 65.2167 61.1552 65.3714C60.513 66.7646 59.58 67.9514 58.3839 68.8875C57.1896 69.8218 55.861 70.5313 54.3079 70.6934C54.111 70.7137 53.9049 70.7321 53.7724 70.9146H51.4537C51.2992 70.7192 51.0765 70.7008 50.8538 70.6916C49.5915 70.6363 48.5205 70.0374 47.4955 69.4053C46.3067 68.6701 45.3093 67.7026 44.6119 66.4605C44.472 66.2099 44.2714 66.1344 44.1702 66.5011C44.0782 66.8309 43.8261 67.0742 43.6329 67.3064C42.4 68.7843 40.8855 69.8605 39.0453 70.5018C38.508 70.6879 37.8952 70.5055 37.4314 70.9164H35.0024L35.0005 70.9127ZM43.1673 21.1167C43.1673 20.4441 43.1949 19.9097 43.1618 19.3808C43.0827 18.1019 42.665 16.9078 41.9583 15.8647C41.4523 15.1184 40.7714 14.5048 39.9967 13.9759C38.7877 13.1503 37.4498 12.8591 36.055 12.872C34.6711 12.8849 33.3646 13.2922 32.2237 14.1454C31.23 14.8881 30.5068 15.8205 29.9639 16.9465C29.5646 17.772 29.5057 18.6326 29.3732 19.4987C29.2554 20.2727 28.7512 20.6818 27.9728 20.6873C27.6416 20.6892 27.3085 20.6689 26.9791 20.6929C25.2898 20.8108 23.7625 21.4447 22.4835 22.4933C21.4825 23.3133 20.6102 24.3011 20.0784 25.5634C19.6736 26.5253 19.3994 27.5002 19.3294 28.5174C19.2282 29.9787 19.5484 31.3553 20.1594 32.719C20.8789 34.324 22.2995 35.2344 24.0017 35.0998C24.4213 35.0667 24.8353 34.9801 25.2549 34.9635C25.7922 34.9432 26.3424 35.3578 26.4694 35.8978C26.5908 36.4138 26.4436 36.8468 26.0333 37.2356C25.6358 37.6116 25.1629 37.4973 24.7322 37.5489C23.5269 37.6927 22.3382 37.665 21.1917 37.1177C20.3268 36.7049 19.5668 36.1982 18.9393 35.4702C18.678 35.168 18.3928 34.7755 17.929 35.3302C17.7947 35.4905 17.5444 35.6343 17.3439 35.7835C15.7723 36.9519 14.7602 38.5016 14.1511 40.3481C13.6193 41.9606 13.5328 43.5822 13.9101 45.2352C14.2965 46.9287 15.062 48.4104 16.2379 49.7022C17.2353 50.7968 18.4535 51.5357 19.7527 52.177C20.4446 52.5198 20.682 53.0395 20.4464 53.76C20.3563 54.0383 20.2293 54.3202 20.2146 54.604C20.1299 56.3546 20.187 58.0537 21.2524 59.6017C22.5443 61.4776 24.2851 62.4727 26.5117 62.692C26.7049 62.7105 26.8154 62.6699 26.7859 62.4174C26.5099 60.055 27.0399 57.8842 28.4071 55.9363C28.9886 55.1089 29.7173 54.4179 30.608 53.9258C31.0938 53.6586 31.9274 53.9332 32.2053 54.4234C32.4648 54.8804 32.3286 55.7115 31.9385 56.0119C31.2189 56.5629 30.5289 57.1507 30.1001 57.9653C29.4358 59.2276 29.2058 60.571 29.3548 62.0028C29.4947 63.3352 29.8958 64.5883 30.7074 65.611C31.6293 66.7738 32.8052 67.6694 34.3068 68.0619C36.8775 68.7346 39.0913 68.1983 41.0382 66.35C42.4552 65.0047 43.1287 63.3536 43.1544 61.4721C43.2115 57.4345 43.1857 53.397 43.1581 49.3594C43.1489 47.8925 42.7551 46.4791 41.9841 45.2481C40.8413 43.4238 39.1465 42.4342 36.9604 42.3715C36.2519 42.3512 35.7127 41.8353 35.6851 41.1497C35.6593 40.5269 36.331 39.8506 37.0027 39.8321C37.3339 39.8229 37.6596 39.8506 37.989 39.9188C39.5182 40.2302 40.9609 40.6927 42.1865 41.7468C42.4644 41.9845 42.6355 42.4858 43.171 42.4489C43.171 42.2315 43.171 42.0306 43.171 41.8279C43.171 37.1822 43.171 32.5365 43.171 27.889C43.171 27.373 43.1747 26.8589 43.0698 26.3484C42.7698 24.8852 42.3466 23.5013 40.937 22.6812C40.2525 22.2832 39.5513 22.2076 38.8373 22.5449C38.1933 22.8489 37.6375 23.2857 37.1168 23.7814C36.4856 24.3803 35.8047 24.911 34.9895 25.2648C33.8651 25.7532 32.8181 25.5155 31.7397 25.1008C31.1711 24.8815 30.8895 24.5148 30.8104 23.962C30.7037 23.2064 31.6735 22.25 32.7113 22.755C33.3315 23.0572 34.0216 23.0627 34.6601 22.5836C35.5213 21.9386 36.1709 21.0412 37.1591 20.5436C38.243 19.9963 39.3397 19.6683 40.58 19.8913C41.5185 20.0608 42.3245 20.4699 43.1673 21.1204V21.1167ZM45.7105 47.2365C46.4521 46.5805 47.109 46.0055 47.8672 45.5393C49.1038 44.78 50.4343 44.347 51.8475 44.1351C52.5615 44.0282 53.0621 44.3544 53.351 45.0454C53.5534 45.5319 53.4025 45.9558 52.8578 46.4183C52.5468 46.6818 52.1512 46.7924 51.7794 46.7703C51.0452 46.726 50.3883 47.0264 49.7976 47.3176C48.5849 47.9128 47.5746 48.7789 46.8275 49.9694C46.1337 51.0732 45.7252 52.2268 45.716 53.5112C45.6939 56.2957 45.7086 59.0783 45.7105 61.8628C45.7105 63.2817 46.1981 64.5625 47.0538 65.6405C48.0034 66.8365 49.2161 67.7063 50.7563 68.0951C52.9461 68.6498 54.9207 68.2407 56.7185 66.9323C57.9239 66.0533 58.6967 64.8665 59.1476 63.431C59.7898 61.3855 59.6076 59.4763 58.4814 57.6372C58.0876 56.9959 57.5301 56.5684 56.967 56.1188C56.4039 55.671 56.3174 55.0149 56.713 54.405C57.0571 53.8761 57.7325 53.6568 58.2496 53.9443C59.2083 54.4805 59.9573 55.2711 60.5627 56.1575C61.1497 57.0199 61.5233 57.9966 61.7625 59.0415C62.0165 60.1527 62.1379 61.2473 61.987 62.3677C61.941 62.7012 62.0514 62.6883 62.3035 62.6644C63.5199 62.5501 64.6351 62.2129 65.6637 61.496C66.7862 60.7147 67.6401 59.7233 68.1369 58.4868C68.7589 56.9407 68.9319 55.3337 68.3081 53.7102C68.0597 53.0616 68.3467 52.459 68.9614 52.1604C69.6477 51.8251 70.347 51.5173 70.9837 51.0861C71.7603 50.5591 72.443 49.9104 73.0135 49.1862C73.9924 47.9441 74.6402 46.5381 74.9218 44.9477C75.218 43.2745 75.0966 41.6602 74.5592 40.0699C74.3439 39.4341 74.044 38.8315 73.6943 38.2437C73.0245 37.1195 72.1191 36.235 71.0978 35.4518C70.8678 35.2749 70.6065 34.9948 70.3691 35.0059C70.0839 35.0188 69.9367 35.4076 69.7508 35.6508C69.6257 35.813 69.4435 35.8959 69.2981 36.0323C68.5344 36.7584 67.6088 37.2393 66.593 37.4807C65.5294 37.7332 64.44 37.6226 63.3616 37.4992C62.5207 37.4033 61.9981 36.434 62.3845 35.6785C62.7047 35.0519 63.312 34.8161 64.1787 35.0095C65.1669 35.2307 66.133 35.1091 67.0052 34.6502C67.7284 34.2706 68.2179 33.5998 68.5988 32.8627C69.2963 31.5082 69.5171 30.0635 69.449 28.5598C69.3349 26.0149 68.2069 23.9694 66.2379 22.4325C64.6774 21.2162 62.8722 20.5528 60.8498 20.691C60.4044 20.7205 60.0842 20.5583 59.7696 20.2653C59.3776 19.9023 59.4843 19.4213 59.4144 18.9883C59.1807 17.538 58.6691 16.2204 57.6552 15.135C56.5253 13.9261 55.1746 13.1245 53.5 12.9623C51.8825 12.8039 50.3441 12.9937 48.929 13.8985C48.2776 14.315 47.6887 14.7959 47.2194 15.3875C46.5588 16.2186 46.0123 17.151 45.8338 18.2106C45.6185 19.484 45.716 20.7813 45.7123 22.0694C45.7105 22.7586 45.7123 23.4478 45.7123 24.1997C46.0362 24.0044 46.2736 23.8367 46.5312 23.7095C47.7789 23.0959 49.0449 22.7439 50.4398 23.258C51.393 23.61 52.3757 23.8754 53.351 24.1629C53.9159 24.3287 54.4698 24.2476 55.02 24.0412C55.6236 23.8146 56.1186 23.4257 56.6265 23.0498C57.1087 22.6941 58.0269 22.755 58.3453 23.1456C58.763 23.6616 58.7961 24.5959 58.3177 24.9387C57.6791 25.3957 57.0553 25.8656 56.3413 26.2323C54.9501 26.9473 53.5552 26.8589 52.1364 26.4829C51.4022 26.2876 50.6753 26.0333 49.9761 25.7329C48.7983 25.2243 47.6243 25.8158 46.9121 26.6967C46.0859 27.7194 45.727 28.9154 45.7234 30.1943C45.7013 35.8351 45.7142 41.4759 45.7142 47.2328L45.7105 47.2365Z" stroke="#D860E2" mask="url(#path-1-outside-1_1034_1697)"/>
<path d="M77.4021 12.11C77.58 11.8007 77.5914 11.4029 77.4836 11.0512C77.3745 10.6954 77.1331 10.3515 76.758 10.1597L76.7579 10.1596C76.3775 9.96548 76.0163 9.92081 75.6741 10.0078C75.3392 10.0929 75.0494 10.2972 74.7923 10.5507L74.7922 10.5508C74.5745 10.7657 74.3564 10.9805 74.1382 11.1954C73.183 12.1363 72.2255 13.0794 71.2902 14.043L71.2899 14.0433C71.2444 14.0904 71.1972 14.1346 71.1446 14.1838C71.1201 14.2068 71.0943 14.2309 71.067 14.2569C70.9865 14.3337 70.8982 14.4219 70.8223 14.5216C70.6719 14.7193 70.5639 14.9728 70.6326 15.2913C70.6358 15.8907 70.8958 16.377 71.3127 16.6478C71.7329 16.9208 72.2797 16.9531 72.8036 16.7063L72.697 16.4801M77.4021 12.11C77.402 12.1101 77.402 12.1102 77.4019 12.1103L77.1852 11.9855L77.4022 12.1097C77.4022 12.1098 77.4021 12.1099 77.4021 12.11ZM77.4021 12.11C77.1769 12.5032 76.8611 12.8133 76.5776 13.0916C76.5357 13.1327 76.4945 13.1732 76.4544 13.2131L76.4544 13.2131C76.2008 13.4655 75.9471 13.7171 75.6935 13.9685C75.0605 14.5962 74.4284 15.223 73.8025 15.8577L73.8019 15.8583C73.7536 15.907 73.7034 15.9605 73.6508 16.0166C73.4288 16.2536 73.1628 16.5374 72.8034 16.7064L72.697 16.4801M72.697 16.4801C73.0086 16.3336 73.233 16.0951 73.4533 15.8609C73.5101 15.8005 73.5667 15.7404 73.6245 15.6822L72.697 16.4801Z" fill="#D860E2" stroke="#D860E2" stroke-width="0.5"/>
<path d="M15.8401 16.8599L16.5183 16.9157L16.3789 16.7761C16.694 16.6792 16.9537 16.5018 17.1365 16.2616C17.4109 15.9011 17.4901 15.427 17.3544 14.9453L17.3544 14.9452C17.2604 14.6122 17.0818 14.3542 16.8876 14.1354C16.7911 14.0266 16.6888 13.9254 16.5907 13.8302C16.5707 13.8108 16.5509 13.7917 16.5314 13.7729C16.4533 13.6974 16.379 13.6256 16.3073 13.5513C15.7363 12.9587 15.1463 12.3724 14.5584 11.7881C14.1092 11.3417 13.6611 10.8964 13.2235 10.4503L13.2234 10.4502C12.9474 10.1692 12.5253 10.0249 12.1236 10.0015C11.7224 9.97816 11.2838 10.0724 10.9792 10.3399L10.9792 10.3399L10.9787 10.3403C10.7012 10.5853 10.5632 10.9921 10.5415 11.3717C10.5196 11.7525 10.6105 12.1803 10.881 12.468L10.8812 12.4682C11.2627 12.8732 11.6698 13.2647 12.0718 13.6513C12.3169 13.887 12.5602 14.1209 12.7946 14.355C12.8872 14.4477 12.9798 14.5402 13.0723 14.6325C13.5995 15.1589 14.122 15.6804 14.6169 16.2273C14.972 16.6222 15.3925 16.8231 15.8401 16.8599Z" fill="#D860E2" stroke="#D860E2" stroke-width="0.5"/>
<path d="M42.9539 7.4135C42.8141 7.15735 42.7221 6.8883 42.7239 6.57687C42.7311 5.61919 42.7303 4.66093 42.7294 3.70274C42.7287 2.94991 42.728 2.19712 42.7313 1.44468L42.9539 7.4135ZM42.9539 7.4135L42.7343 7.53284C43.0457 8.10604 43.7682 8.44015 44.3655 8.27553L44.3656 8.27552C44.7146 8.17925 45.0052 8.00185 45.2087 7.74786C45.413 7.49285 45.5171 7.17588 45.5171 6.8238V6.8184V6.813V6.8076V6.80221V6.79681V6.79141V6.78601V6.78061V6.77521V6.76981V6.76442V6.75902V6.75362V6.74822V6.74282V6.73743V6.73203V6.72663V6.72123V6.71583V6.71043V6.70504V6.69964V6.69424V6.68884V6.68345V6.67805V6.67265V6.66725V6.66186V6.65646V6.65106V6.64566V6.64026V6.63487V6.62947V6.62407V6.61868V6.61328V6.60788V6.60248V6.59709V6.59169V6.58629V6.5809V6.5755V6.5701V6.5647V6.55931V6.55391V6.54851V6.54312V6.53772V6.53232V6.52693V6.52153V6.51613V6.51074V6.50534V6.49995V6.49455V6.48915V6.48376V6.47836V6.47296V6.46757V6.46217V6.45677V6.45138V6.44598V6.44059V6.43519V6.42979V6.4244V6.419V6.41361V6.40821V6.40282V6.39742V6.39202V6.38663V6.38123V6.37584V6.37044V6.36505V6.35965V6.35425V6.34886V6.34346V6.33807V6.33267V6.32728V6.32188V6.31649V6.31109V6.3057V6.3003V6.29491V6.28951V6.28412V6.27872V6.27333V6.26793V6.26254V6.25714V6.25175V6.24635V6.24096V6.23556V6.23017V6.22477V6.21938V6.21398V6.20859V6.2032V6.1978V6.19241V6.18701V6.18162V6.17622V6.17083V6.16543V6.16004V6.15465V6.14925V6.14386V6.13846V6.13307V6.12768V6.12228V6.11689V6.11149V6.1061V6.10071V6.09531V6.08992V6.08452V6.07913V6.07374V6.06834V6.06295V6.05756V6.05216V6.04677V6.04137V6.03598V6.03059V6.02519V6.0198V6.01441V6.00901V6.00362V5.99823V5.99283V5.98744V5.98205V5.97665V5.97126V5.96587V5.96047V5.95508V5.94969V5.94429V5.9389V5.93351V5.92812V5.92272V5.91733V5.91194V5.90654V5.90115V5.89576V5.89037V5.88497V5.87958V5.87419V5.8688V5.8634V5.85801V5.85262V5.84723V5.84183V5.83644V5.83105V5.82566V5.82026V5.81487V5.80948V5.80409V5.79869V5.7933V5.78791V5.78252V5.77712V5.77173V5.76634V5.76095V5.75556V5.75016V5.74477V5.73938V5.73399V5.7286V5.7232V5.71781V5.71242V5.70703V5.70164V5.69624V5.69085V5.68546V5.68007V5.67468V5.66929V5.66389V5.6585V5.65311V5.64772V5.64233V5.63694V5.63155V5.62615V5.62076V5.61537V5.60998V5.60459V5.5992V5.5938V5.58841V5.58302V5.57763V5.57224V5.56685V5.56146V5.55607V5.55067V5.54528V5.53989V5.5345V5.52911V5.52372V5.51833V5.51294V5.50755V5.50216V5.49676V5.49137V5.48598V5.48059V5.4752V5.46981V5.46442V5.45903V5.45364V5.44825V5.44286V5.43747V5.43208V5.42668V5.42129V5.4159V5.41051V5.40512V5.39973V5.39434V5.38895V5.38356V5.37817V5.37278V5.36739V5.362V5.35661V5.35122V5.34583V5.34044V5.33505V5.32966V5.32427V5.31888V5.31349V5.30809V5.3027V5.29731V5.29192V5.28653V5.28114V5.27575V5.27036V5.26497V5.25958V5.25419V5.2488V5.24341V5.23802V5.23263V5.22724V5.22185V5.21646V5.21107V5.20568V5.20029V5.1949V5.18951V5.18412V5.17873V5.17335V5.16796V5.16257V5.15718V5.15179V5.1464V5.14101V5.13562V5.13023V5.12484V5.11945V5.11406V5.10867V5.10328V5.09789V5.0925V5.08711V5.08172V5.07633V5.07094V5.06555V5.06016V5.05477V5.04939V5.044V5.03861V5.03322V5.02783V5.02244V5.01705V5.01166V5.00627V5.00088V4.99549V4.9901V4.98471V4.97932V4.97393V4.96855V4.96316V4.95777V4.95238V4.94699V4.9416V4.93621V4.93082V4.92543V4.92004V4.91465V4.90927V4.90388V4.89849V4.8931V4.88771V4.88232V4.87693V4.87154V4.86615V4.86076V4.85538V4.84999V4.8446V4.83921V4.83382V4.82843V4.82304V4.81765V4.81226V4.80688V4.80149V4.7961V4.79071V4.78532V4.77993V4.77454V4.76915V4.76377V4.75838V4.75299V4.7476V4.74221V4.73682V4.73143V4.72605V4.72066V4.71527V4.70988V4.70449V4.6991V4.69371V4.68832V4.68294V4.67755V4.67216V4.66773L42.4813 1.44371C42.478 2.19972 42.4787 2.95293 42.4794 3.70543C42.4803 4.66168 42.4811 5.61678 42.4739 6.57498L42.4739 6.57539C42.4717 6.94086 42.5808 7.25177 42.7345 7.5333L42.9539 7.4135ZM44.186 -0.248143C43.6793 -0.261362 43.2444 -0.125071 42.9363 0.180958C42.6289 0.486124 42.4833 0.924667 42.4813 1.44361L45.2671 1.08534L45.5171 1.08361C45.5146 0.733985 45.3353 0.406535 45.0971 0.170931C44.8589 -0.0647084 44.5304 -0.23964 44.186 -0.248143ZM44.186 -0.248143L44.1795 0.00177223L44.1856 -0.248154C44.1857 -0.248151 44.1859 -0.248147 44.186 -0.248143Z" fill="#D860E2" stroke="#D860E2" stroke-width="0.5"/>
<path d="M3.79847 46.0715V46.0766H4.04847C4.34115 46.0766 4.6344 46.0772 4.92796 46.0778C5.51624 46.079 6.10576 46.0802 6.6944 46.0766L6.69283 45.8266C7.04247 45.8247 7.42891 45.8063 7.66813 45.5557C8.01593 45.1908 8.22019 44.7117 8.02513 44.1994M3.79847 46.0715L6.69415 46.0766C6.86941 46.0756 7.07619 46.0709 7.27384 46.029C7.47386 45.9865 7.68306 45.9021 7.84897 45.7283L7.84909 45.7282C8.23466 45.3237 8.5007 44.7461 8.25883 44.1106L8.02513 44.1994M3.79847 46.0715C3.60972 46.0722 3.42028 46.0735 3.23039 46.0748C2.60353 46.0791 1.97172 46.0834 1.34356 46.0654C0.885804 46.053 0.489958 45.9096 0.204061 45.6503C-0.0840271 45.3891 -0.242581 45.026 -0.248098 44.6139M3.79847 46.0715L8.2588 44.1105M8.02513 44.1994C7.81719 43.6521 7.39946 43.3314 6.78484 43.3296M8.02513 44.1994L8.25877 44.1104C8.25878 44.1104 8.25879 44.1105 8.2588 44.1105M6.78484 43.3296L8.2588 44.1105M6.78484 43.3296L6.78559 43.0796M6.78484 43.3296L6.78559 43.0796M8.2588 44.1105C8.14073 43.7998 7.95742 43.5393 7.7033 43.3568C7.44829 43.1738 7.1378 43.0806 6.78559 43.0796M6.78559 43.0796C6.26729 43.078 5.74848 43.0752 5.22936 43.0724C3.93021 43.0655 2.62921 43.0585 1.33006 43.0704L1.33005 43.0704C0.394018 43.0789 -0.261244 43.7391 -0.248098 44.6139M-0.248098 44.6139C-0.248099 44.6138 -0.2481 44.6137 -0.248102 44.6136L0.00187656 44.6103L-0.248095 44.6141C-0.248096 44.614 -0.248097 44.6139 -0.248098 44.6139Z" fill="#D860E2" stroke="#D860E2" stroke-width="0.5"/>
<path d="M86.6098 43.0833L86.6099 43.0833C87.2245 43.0902 87.7227 43.2727 88.0079 43.6686C88.2919 44.0629 88.3125 44.5968 88.1387 45.1877C88.0393 45.5258 87.8448 45.748 87.5941 45.8803C87.3548 46.0065 87.0827 46.0411 86.8377 46.0488L86.8376 46.0488C86.0463 46.0738 85.2529 46.072 84.4653 46.0702C84.2605 46.0697 84.0561 46.0692 83.8523 46.0692C83.6524 46.0692 83.4519 46.0699 83.2508 46.0706C82.5869 46.073 81.9177 46.0753 81.2509 46.0525M86.6098 43.0833L81.248 43.0871C80.7911 43.1012 80.4106 43.224 80.1459 43.4918C79.8804 43.7604 79.7711 44.1345 79.771 44.5658C79.77 44.994 79.8874 45.3674 80.1539 45.6372C80.4195 45.9062 80.7989 46.0373 81.2509 46.0525M86.6098 43.0833C86.0221 43.0769 85.4342 43.0785 84.848 43.0801M86.6098 43.0833L84.848 43.0801M81.2509 46.0525L81.2595 45.8027L81.251 46.0525C81.251 46.0525 81.251 46.0525 81.2509 46.0525ZM84.848 43.0801C84.5882 43.0808 84.3287 43.0815 84.0697 43.0815M84.848 43.0801L84.0697 43.0815M84.0697 43.0815C83.8084 43.081 83.5457 43.0788 83.2821 43.0767C82.6067 43.0713 81.9257 43.0658 81.2481 43.0871L84.0697 43.0815Z" fill="#D860E2" stroke="#D860E2" stroke-width="0.5"/>
<path d="M21.5837 50.9055L21.5837 50.9055L21.5837 50.9055ZM21.5837 50.9055C21.2359 51.1911 21.1807 51.6665 21.4401 52.0627L21.5837 50.9055ZM21.231 52.1997L21.231 52.1997C20.9092 51.7084 20.9681 51.0875 21.425 50.7123L21.4253 50.712C21.4959 50.6542 21.5672 50.595 21.6392 50.5352C22.4149 49.8909 23.2804 49.1721 24.5118 49.1923L24.5121 49.1923C24.9034 49.1991 25.1754 49.3532 25.3668 49.5833C25.541 49.7927 25.6411 50.0588 25.7219 50.2734L25.7261 50.2846C25.8368 50.5778 25.7995 50.9095 25.695 51.1861C25.5907 51.4623 25.4032 51.7269 25.1578 51.875C25.1577 51.875 25.1576 51.8751 25.1576 51.8751L25.0285 51.661C24.8292 51.7815 24.6288 51.9002 24.4285 52.0189C24.0833 52.2234 23.7381 52.428 23.3981 52.6414L21.231 52.1997ZM21.231 52.1997L21.2314 52.2004C21.2438 52.2192 21.2566 52.2387 21.2697 52.2588C21.3865 52.4377 21.5328 52.6618 21.7271 52.8213C21.9617 53.0138 22.2629 53.1131 22.6529 53.0224L21.231 52.1997Z" fill="#D860E2" stroke="#D860E2" stroke-width="0.5"/>
<path d="M64.5245 49.1847C64.2089 49.1855 63.8895 49.2926 63.6302 49.455C63.3718 49.6169 63.1425 49.8535 63.0503 50.1367L64.5245 49.1847ZM64.5245 49.1847C65.0099 49.1636 65.3925 49.3541 65.7192 49.5626C65.8139 49.623 65.9144 49.6922 66.0102 49.7581C66.0718 49.8005 66.1314 49.8415 66.1863 49.8781C66.3368 49.9782 66.4802 50.0646 66.6286 50.128L64.5245 49.1847ZM67.2174 52.6845L67.2172 52.6847C67.1172 52.7917 66.9728 52.8652 66.8344 52.9159C66.6901 52.9688 66.5253 53.0066 66.3601 53.028C66.1947 53.0494 66.0219 53.0553 65.8611 53.0405C65.7041 53.026 65.5402 52.9902 65.4054 52.9147C65.4053 52.9146 65.4053 52.9146 65.4052 52.9145L67.2174 52.6845ZM67.2174 52.6845C67.4592 52.4251 67.5928 52.133 67.6283 51.816C67.6633 51.5036 67.6013 51.1832 67.4798 50.8642M67.2174 52.6845L67.4798 50.8642M67.4798 50.8642C67.3075 50.4114 66.93 50.254 66.683 50.1509M67.4798 50.8642L66.683 50.1509M66.683 50.1509C66.6641 50.143 66.6459 50.1354 66.6286 50.128L66.683 50.1509ZM63.0502 50.1368C62.8327 50.8039 63.0903 51.5037 63.7178 51.9062L63.0502 50.1368Z" fill="#D860E2" stroke="#D860E2" stroke-width="0.5"/>
</svg>
